<?xml version="1.0" standalone="no"?><!-- Generator: Gravit.io --><svg xmlns="http://www.w3.org/2000/svg" xmlns:xlink="http://www.w3.org/1999/xlink" style="isolation:isolate" viewBox="230.5 2364.5 8861 2798" width="8861" height="2798"><g><path d="M 1869 3258 L 9064 3258 C 9077.798 3258 9089 3269.202 9089 3283 L 9089 5135 C 9089 5148.798 9077.798 5160 9064 5160 L 1869 5160 C 1855.202 5160 1844 5148.798 1844 5135 L 1844 3283 C 1844 3269.202 1855.202 3258 1869 3258 Z" style="stroke:none;fill:#CE9773;stroke-miterlimit:10;"/><path d="M 1869 3258 L 9064 3258 C 9077.798 3258 9089 3269.202 9089 3283 L 9089 5135 C 9089 5148.798 9077.798 5160 9064 5160 L 1869 5160 C 1855.202 5160 1844 5148.798 1844 5135 L 1844 3283 C 1844 3269.202 1855.202 3258 1869 3258 Z" style="fill:none;stroke:#000000;stroke-width:5;stroke-linecap:square;stroke-miterlimit:2;"/><path d="M 7432.5 3482.774 L 7989 3482.774 C 8002.798 3482.774 8014 3493.976 8014 3507.774 L 8014 5063 C 8014 5076.798 8002.798 5088 7989 5088 L 7432.5 5088 C 7418.702 5088 7407.5 5076.798 7407.5 5063 L 7407.5 3507.774 C 7407.5 3493.976 7418.702 3482.774 7432.5 3482.774 Z" style="stroke:none;fill:#CCC9C9;stroke-linecap:square;stroke-miterlimit:2;opacity:0.81;"/><path d="M 7432.5 3482.774 L 7989 3482.774 C 8002.798 3482.774 8014 3493.976 8014 3507.774 L 8014 5063 C 8014 5076.798 8002.798 5088 7989 5088 L 7432.5 5088 C 7418.702 5088 7407.5 5076.798 7407.5 5063 L 7407.5 3507.774 C 7407.5 3493.976 7418.702 3482.774 7432.5 3482.774 Z" style="fill:none;stroke:#000000;stroke-width:4;stroke-linecap:square;stroke-miterlimit:2;"/><path d="M 258 4007 L 3079 4007 C 3092.798 4007 3104 4018.202 3104 4032 L 3104 5135 C 3104 5148.798 3092.798 5160 3079 5160 L 258 5160 C 244.202 5160 233 5148.798 233 5135 L 233 4032 C 233 4018.202 244.202 4007 258 4007 Z" style="stroke:none;fill:#CE9773;stroke-linecap:square;stroke-miterlimit:2;"/><path d="M 258 4007 L 3079 4007 C 3092.798 4007 3104 4018.202 3104 4032 L 3104 5135 C 3104 5148.798 3092.798 5160 3079 5160 L 258 5160 C 244.202 5160 233 5148.798 233 5135 L 233 4032 C 233 4018.202 244.202 4007 258 4007 Z" style="fill:none;stroke:#000000;stroke-width:5;stroke-linecap:square;stroke-miterlimit:2;"/><rect x="3104" y="2532" width="1615" height="2628" transform="matrix(1,0,0,1,0,0)" fill="rgb(206,151,115)" vector-effect="non-scaling-stroke" stroke-width="5" stroke="rgb(0,0,0)" stroke-linejoin="miter" stroke-linecap="square" stroke-miterlimit="2"/><path d="M 3435 4543 L 4388 4543 C 4401.798 4543 4413 4554.202 4413 4568 L 4413 5135 C 4413 5148.798 4401.798 5160 4388 5160 L 3435 5160 C 3421.202 5160 3410 5148.798 3410 5135 L 3410 4568 C 3410 4554.202 3421.202 4543 3435 4543 Z" style="stroke:none;fill:#CCC9C9;stroke-linecap:square;stroke-miterlimit:2;"/><path d="M 3435 4543 L 4388 4543 C 4401.798 4543 4413 4554.202 4413 4568 L 4413 5135 C 4413 5148.798 4401.798 5160 4388 5160 L 3435 5160 C 3421.202 5160 3410 5148.798 3410 5135 L 3410 4568 C 3410 4554.202 3421.202 4543 3435 4543 Z" style="fill:none;stroke:#000000;stroke-width:2;stroke-linecap:square;stroke-miterlimit:2;"/><rect x="3545.5" y="4732" width="326" height="428" transform="matrix(1,0,0,1,0,0)" fill="rgb(206,151,115)" vector-effect="non-scaling-stroke" stroke-width="2" stroke="rgb(0,0,0)" stroke-linejoin="miter" stroke-linecap="square" stroke-miterlimit="2"/><rect x="3951.5" y="4732" width="326" height="428" transform="matrix(1,0,0,1,0,0)" fill="rgb(206,151,115)" vector-effect="non-scaling-stroke" stroke-width="2" stroke="rgb(0,0,0)" stroke-linejoin="miter" stroke-linecap="square" stroke-miterlimit="2"/><rect x="3583.75" y="4778" width="115.5" height="353" transform="matrix(1,0,0,1,0,0)" fill="rgb(241,242,236)" vector-effect="non-scaling-stroke" stroke-width="1" stroke="rgb(0,0,0)" stroke-linejoin="miter" stroke-linecap="square" stroke-miterlimit="2"/><rect x="3717.75" y="4778" width="115.5" height="353" transform="matrix(1,0,0,1,0,0)" fill="rgb(241,242,236)" vector-effect="non-scaling-stroke" stroke-width="1" stroke="rgb(0,0,0)" stroke-linejoin="miter" stroke-linecap="square" stroke-miterlimit="2"/><rect x="3989.75" y="4778" width="115.5" height="353" transform="matrix(1,0,0,1,0,0)" fill="rgb(241,242,236)" vector-effect="non-scaling-stroke" stroke-width="1" stroke="rgb(0,0,0)" stroke-linejoin="miter" stroke-linecap="square" stroke-miterlimit="2"/><rect x="4123.75" y="4778" width="115.5" height="353" transform="matrix(1,0,0,1,0,0)" fill="rgb(241,242,236)" vector-effect="non-scaling-stroke" stroke-width="1" stroke="rgb(0,0,0)" stroke-linejoin="miter" stroke-linecap="square" stroke-miterlimit="2"/><rect x="3545.5" y="4583.5" width="732" height="95.5" transform="matrix(1,0,0,1,0,0)" fill="rgb(241,242,236)" vector-effect="non-scaling-stroke" stroke-width="1" stroke="rgb(0,0,0)" stroke-linejoin="miter" stroke-linecap="square" stroke-miterlimit="2"/><path d=" M 3410 4508 L 3410 2910 L 3104 2910 L 3104 2532 L 4719 2532 L 4717.46 2910 L 4413 2910 L 4413 4508 L 3410 4508 Z " fill="rgb(241,242,236)" vector-effect="non-scaling-stroke" stroke-width="5" stroke="rgb(0,0,0)" stroke-linejoin="miter" stroke-linecap="square" stroke-miterlimit="3"/><path d=" M 3410 2910 L 3545.5 2910 L 3545.5 2532 L 3657 2532 L 3657 2910 L 3861.5 2910 L 3861.839 2530 L 3979.75 2530 L 3979.75 2910 L 4164 2910 L 4164 2532 L 4277.5 2532 L 4277.5 2910 L 4413 2910 L 4413 3013 L 4277.5 3013 L 4277.5 4007 L 4413 4007 L 4413 4123 L 4277.5 4123 L 4277.5 4508 L 4164 4508 L 4164 4123 L 3979.75 4123 L 3979.75 4508 L 3861.5 4508 L 3861.5 4123 L 3657 4123 L 3657 4508 L 3545.5 4508 L 3545.5 4123 L 3410 4123 L 3410 4007 L 3545.5 4007 L 3545.5 3013 L 3410 3013 L 3410 2910 Z " fill="rgb(204,201,201)" vector-effect="non-scaling-stroke" stroke-width="4" stroke="rgb(0,0,0)" stroke-linejoin="miter" stroke-linecap="square" stroke-miterlimit="3"/><rect x="3951.5" y="3013" width="230" height="994" transform="matrix(1,0,0,1,0,0)" fill="rgb(241,242,236)" vector-effect="non-scaling-stroke" stroke-width="4" stroke="rgb(0,0,0)" stroke-linejoin="miter" stroke-linecap="square" stroke-miterlimit="2"/><rect x="3641.5" y="3013" width="230" height="994" transform="matrix(1,0,0,1,0,0)" fill="rgb(241,242,236)" vector-effect="non-scaling-stroke" stroke-width="4" stroke="rgb(0,0,0)" stroke-linejoin="miter" stroke-linecap="square" stroke-miterlimit="2"/><path d=" M 4040.509 3586.472 C 4042.982 3593.903 4056.956 3617.891 4049.564 3662.374 L 4067.537 3665.597 L 4069.7 3669.063 C 4069.7 3669.063 4090.255 3671.673 4093.458 3674.54 C 4093.458 3674.54 4100.539 3679.218 4092.958 3685.664 C 4092.958 3685.664 4104.553 3683.524 4111.107 3677.435 C 4111.107 3677.435 4117.067 3672.557 4110.04 3665.783 L 4099.566 3656.484 C 4096.187 3655.329 4090.12 3657.753 4090.12 3657.753 C 4088.701 3649.553 4078.984 3638.186 4078.984 3638.186 C 4078.984 3638.186 4098.377 3655.357 4099.553 3656.441 C 4099.755 3656.028 4105.769 3643.62 4093.579 3632.809 C 4075.362 3616.665 4040.455 3586.301 4040.509 3586.472 Z  M 3859.743 3305.313 L 3845.783 3335.078 C 3842.675 3343.25 3848.486 3348.555 3852.743 3353.248 C 3857.027 3357.94 3982.641 3482.803 3982.641 3482.803 L 3981.79 3489.677 L 3862.865 3376.68 C 3853.297 3367.367 3855.905 3360.321 3856.365 3359.295 L 3843.594 3386.663 C 3840.688 3395.149 3849.824 3400.754 3856.135 3406.544 C 3862.851 3412.691 3995.196 3530.466 4006.034 3539.85 C 4029.184 3559.945 4040.495 3586.458 4040.495 3586.458 C 4053.821 3521.367 4001.953 3471.108 3989.02 3456.917 C 3985.682 3453.266 3866.135 3325.423 3866.135 3325.423 C 3855.783 3314.527 3859.432 3305.969 3859.73 3305.313 L 3859.743 3305.313 Z  M 3737.71 3297.113 L 3716.628 3341.282 C 3710.979 3355.13 3719.668 3363.93 3725.75 3368.594 C 3731.845 3373.243 3931.26 3526.843 3931.26 3526.843 L 3931.436 3533.247 L 3733.129 3388.332 C 3723.304 3381.244 3724.439 3369.834 3724.439 3369.834 L 3710.127 3397.959 C 3703.168 3413.804 3720.344 3423.929 3727.507 3428.579 C 3734.683 3433.243 3932.328 3564.266 3932.328 3564.266 L 3934.071 3572.139 C 3934.071 3572.139 3742.48 3450.785 3735.44 3446.677 C 3726.966 3441.714 3727.615 3430.233 3727.615 3430.233 L 3713.601 3458.785 C 3707.722 3470.423 3724.466 3478.538 3731.858 3482.774 C 3736.196 3485.27 3843.391 3546.14 3931.693 3596.142 L 3817.052 3596.142 C 3800.172 3596.142 3794.524 3591.378 3794.524 3591.378 L 3809.889 3605.041 C 3812.497 3607.309 3819.417 3615.595 3829.525 3615.595 C 3836.688 3615.595 3871.798 3615.624 3871.798 3615.624 L 3880.109 3619.046 L 3843.215 3621.785 C 3835.877 3622.099 3833.836 3622.84 3824.052 3617.678 C 3823.957 3617.621 3840.418 3632.909 3840.418 3632.909 C 3844.986 3636.631 3848.648 3640.297 3856.473 3639.669 C 3864.297 3639.056 3910.597 3631.711 3910.597 3631.711 L 3917.922 3634.877 L 3869.352 3644.96 C 3858.27 3647.299 3850.324 3641.851 3850.324 3641.851 C 3850.324 3641.851 3859.5 3650.437 3865.595 3656.028 C 3871.892 3661.818 3877.555 3665.426 3897.542 3660.064 C 3905.489 3657.925 3944.991 3646.044 3944.991 3646.044 L 3970.411 3656.598 C 3996.02 3690.242 4027.806 3708.098 4027.806 3708.098 C 4021.711 3714.929 4026.873 3722.93 4026.873 3722.93 C 4032.171 3712.747 4044.009 3707.142 4052.956 3708.397 C 4060.74 3709.481 4058.659 3718.495 4058.915 3718.152 C 4063.713 3712.362 4067.673 3705.416 4062.835 3699.555 C 4056.97 3692.41 4041.942 3698.585 4041.942 3698.585 L 4027.279 3673.128 L 4047.158 3662.317 C 4058.024 3596.527 4002.683 3551.859 4002.683 3551.859 L 3745.237 3323.141 C 3732.845 3311.646 3737.737 3297.07 3737.737 3297.07 L 3737.71 3297.113 Z " fill="rgb(104,191,145)" vector-effect="non-scaling-stroke" stroke-width="1" stroke="rgb(0,0,0)" stroke-linejoin="miter" stroke-linecap="square" stroke-miterlimit="3"/><path d="M 5491.5 3482.774 L 6048 3482.774 C 6061.798 3482.774 6073 3493.976 6073 3507.774 L 6073 5063 C 6073 5076.798 6061.798 5088 6048 5088 L 5491.5 5088 C 5477.702 5088 5466.5 5076.798 5466.5 5063 L 5466.5 3507.774 C 5466.5 3493.976 5477.702 3482.774 5491.5 3482.774 Z" style="stroke:none;fill:#CCC9C9;stroke-linecap:square;stroke-miterlimit:2;opacity:0.73;"/><path d="M 5491.5 3482.774 L 6048 3482.774 C 6061.798 3482.774 6073 3493.976 6073 3507.774 L 6073 5063 C 6073 5076.798 6061.798 5088 6048 5088 L 5491.5 5088 C 5477.702 5088 5466.5 5076.798 5466.5 5063 L 5466.5 3507.774 C 5466.5 3493.976 5477.702 3482.774 5491.5 3482.774 Z" style="fill:none;stroke:#000000;stroke-width:4;stroke-linecap:square;stroke-miterlimit:2;"/><path d="M 6462 3482.774 L 7018.5 3482.774 C 7032.298 3482.774 7043.5 3493.976 7043.5 3507.774 L 7043.5 5063 C 7043.5 5076.798 7032.298 5088 7018.5 5088 L 6462 5088 C 6448.202 5088 6437 5076.798 6437 5063 L 6437 3507.774 C 6437 3493.976 6448.202 3482.774 6462 3482.774 Z" style="stroke:none;fill:#CCC9C9;stroke-linecap:square;stroke-miterlimit:2;opacity:0.77;"/><path d="M 6462 3482.774 L 7018.5 3482.774 C 7032.298 3482.774 7043.5 3493.976 7043.5 3507.774 L 7043.5 5063 C 7043.5 5076.798 7032.298 5088 7018.5 5088 L 6462 5088 C 6448.202 5088 6437 5076.798 6437 5063 L 6437 3507.774 C 6437 3493.976 6448.202 3482.774 6462 3482.774 Z" style="fill:none;stroke:#000000;stroke-width:4;stroke-linecap:square;stroke-miterlimit:2;"/><path d="M 8403 3482.774 L 8959.5 3482.774 C 8973.298 3482.774 8984.5 3493.976 8984.5 3507.774 L 8984.5 5063 C 8984.5 5076.798 8973.298 5088 8959.5 5088 L 8403 5088 C 8389.202 5088 8378 5076.798 8378 5063 L 8378 3507.774 C 8378 3493.976 8389.202 3482.774 8403 3482.774 Z" style="stroke:none;fill:#CCC9C9;stroke-linecap:square;stroke-miterlimit:2;opacity:0.81;"/><path d="M 8403 3482.774 L 8959.5 3482.774 C 8973.298 3482.774 8984.5 3493.976 8984.5 3507.774 L 8984.5 5063 C 8984.5 5076.798 8973.298 5088 8959.5 5088 L 8403 5088 C 8389.202 5088 8378 5076.798 8378 5063 L 8378 3507.774 C 8378 3493.976 8389.202 3482.774 8403 3482.774 Z" style="fill:none;stroke:#000000;stroke-width:4;stroke-linecap:square;stroke-miterlimit:2;"/><rect x="4719" y="3258" width="4370" height="172.233" transform="matrix(1,0,0,1,0,0)" fill="rgb(204,201,201)" vector-effect="non-scaling-stroke" stroke-width="1" stroke="rgb(0,0,0)" stroke-linejoin="miter" stroke-linecap="square" stroke-miterlimit="2"/><path d="M 2412 4123 L 2900 4123 C 2913.798 4123 2925 4134.202 2925 4148 L 2925 5063 C 2925 5076.798 2913.798 5088 2900 5088 L 2412 5088 C 2398.202 5088 2387 5076.798 2387 5063 L 2387 4148 C 2387 4134.202 2398.202 4123 2412 4123 Z" style="stroke:none;fill:#F1F2EC;stroke-linecap:square;stroke-miterlimit:2;"/><path d="M 2412 4123 L 2900 4123 C 2913.798 4123 2925 4134.202 2925 4148 L 2925 5063 C 2925 5076.798 2913.798 5088 2900 5088 L 2412 5088 C 2398.202 5088 2387 5076.798 2387 5063 L 2387 4148 C 2387 4134.202 2398.202 4123 2412 4123 Z" style="fill:none;stroke:#000000;stroke-width:5;stroke-linecap:square;stroke-miterlimit:2;"/><path d="M 1716 4123 L 2204 4123 C 2217.798 4123 2229 4134.202 2229 4148 L 2229 5063 C 2229 5076.798 2217.798 5088 2204 5088 L 1716 5088 C 1702.202 5088 1691 5076.798 1691 5063 L 1691 4148 C 1691 4134.202 1702.202 4123 1716 4123 Z" style="stroke:none;fill:#F1F2EC;stroke-linecap:square;stroke-miterlimit:2;"/><path d="M 1716 4123 L 2204 4123 C 2217.798 4123 2229 4134.202 2229 4148 L 2229 5063 C 2229 5076.798 2217.798 5088 2204 5088 L 1716 5088 C 1702.202 5088 1691 5076.798 1691 5063 L 1691 4148 C 1691 4134.202 1702.202 4123 1716 4123 Z" style="fill:none;stroke:#000000;stroke-width:5;stroke-linecap:square;stroke-miterlimit:2;"/><path d="M 1020 4123 L 1508 4123 C 1521.798 4123 1533 4134.202 1533 4148 L 1533 5063 C 1533 5076.798 1521.798 5088 1508 5088 L 1020 5088 C 1006.202 5088 995 5076.798 995 5063 L 995 4148 C 995 4134.202 1006.202 4123 1020 4123 Z" style="stroke:none;fill:#F1F2EC;stroke-linecap:square;stroke-miterlimit:2;"/><path d="M 1020 4123 L 1508 4123 C 1521.798 4123 1533 4134.202 1533 4148 L 1533 5063 C 1533 5076.798 1521.798 5088 1508 5088 L 1020 5088 C 1006.202 5088 995 5076.798 995 5063 L 995 4148 C 995 4134.202 1006.202 4123 1020 4123 Z" style="fill:none;stroke:#000000;stroke-width:5;stroke-linecap:square;stroke-miterlimit:2;"/><path d="M 327 4123 L 815 4123 C 828.798 4123 840 4134.202 840 4148 L 840 5063 C 840 5076.798 828.798 5088 815 5088 L 327 5088 C 313.202 5088 302 5076.798 302 5063 L 302 4148 C 302 4134.202 313.202 4123 327 4123 Z" style="stroke:none;fill:#F1F2EC;stroke-linecap:square;stroke-miterlimit:2;"/><path d="M 327 4123 L 815 4123 C 828.798 4123 840 4134.202 840 4148 L 840 5063 C 840 5076.798 828.798 5088 815 5088 L 327 5088 C 313.202 5088 302 5076.798 302 5063 L 302 4148 C 302 4134.202 313.202 4123 327 4123 Z" style="fill:none;stroke:#000000;stroke-width:5;stroke-linecap:square;stroke-miterlimit:2;"/><path d=" M 3104 2532 L 2872 2372 L 4989 2372 L 4717.46 2531.114 L 3104 2532 Z " fill="rgb(204,201,201)" vector-effect="non-scaling-stroke" stroke-width="5" stroke="rgb(0,0,0)" stroke-linejoin="miter" stroke-linecap="square" stroke-miterlimit="3"/><path d="M 5569 3520 L 5986 3520 C 5999.798 3520 6011 3531.202 6011 3545 L 6011 3989.141 C 6011 4002.939 5999.798 4014.141 5986 4014.141 L 5569 4014.141 C 5555.202 4014.141 5544 4002.939 5544 3989.141 L 5544 3545 C 5544 3531.202 5555.202 3520 5569 3520 Z" style="stroke:none;fill:#F1F2EC;stroke-linecap:square;stroke-miterlimit:2;"/><path d="M 5569 3520 L 5986 3520 C 5999.798 3520 6011 3531.202 6011 3545 L 6011 3989.141 C 6011 4002.939 5999.798 4014.141 5986 4014.141 L 5569 4014.141 C 5555.202 4014.141 5544 4002.939 5544 3989.141 L 5544 3545 C 5544 3531.202 5555.202 3520 5569 3520 Z" style="fill:none;stroke:#000000;stroke-width:5;stroke-linecap:square;stroke-miterlimit:2;"/><path d="M 5569 4123 L 5986 4123 C 5999.798 4123 6011 4134.202 6011 4148 L 6011 4982.571 C 6011 4996.369 5999.798 5007.571 5986 5007.571 L 5569 5007.571 C 5555.202 5007.571 5544 4996.369 5544 4982.571 L 5544 4148 C 5544 4134.202 5555.202 4123 5569 4123 Z" style="stroke:none;fill:#F1F2EC;stroke-linecap:square;stroke-miterlimit:2;"/><path d="M 5569 4123 L 5986 4123 C 5999.798 4123 6011 4134.202 6011 4148 L 6011 4982.571 C 6011 4996.369 5999.798 5007.571 5986 5007.571 L 5569 5007.571 C 5555.202 5007.571 5544 4996.369 5544 4982.571 L 5544 4148 C 5544 4134.202 5555.202 4123 5569 4123 Z" style="fill:none;stroke:#000000;stroke-width:5;stroke-linecap:square;stroke-miterlimit:2;"/><path d="M 6531.75 3551.859 L 6948.75 3551.859 C 6962.548 3551.859 6973.75 3563.061 6973.75 3576.859 L 6973.75 4021 C 6973.75 4034.798 6962.548 4046 6948.75 4046 L 6531.75 4046 C 6517.952 4046 6506.75 4034.798 6506.75 4021 L 6506.75 3576.859 C 6506.75 3563.061 6517.952 3551.859 6531.75 3551.859 Z" style="stroke:none;fill:#F1F2EC;stroke-linecap:square;stroke-miterlimit:2;"/><path d="M 6531.75 3551.859 L 6948.75 3551.859 C 6962.548 3551.859 6973.75 3563.061 6973.75 3576.859 L 6973.75 4021 C 6973.75 4034.798 6962.548 4046 6948.75 4046 L 6531.75 4046 C 6517.952 4046 6506.75 4034.798 6506.75 4021 L 6506.75 3576.859 C 6506.75 3563.061 6517.952 3551.859 6531.75 3551.859 Z" style="fill:none;stroke:#000000;stroke-width:5;stroke-linecap:square;stroke-miterlimit:2;"/><path d="M 6531.75 4123 L 6948.75 4123 C 6962.548 4123 6973.75 4134.202 6973.75 4148 L 6973.75 4982.571 C 6973.75 4996.369 6962.548 5007.571 6948.75 5007.571 L 6531.75 5007.571 C 6517.952 5007.571 6506.75 4996.369 6506.75 4982.571 L 6506.75 4148 C 6506.75 4134.202 6517.952 4123 6531.75 4123 Z" style="stroke:none;fill:#F1F2EC;stroke-linecap:square;stroke-miterlimit:2;"/><path d="M 6531.75 4123 L 6948.75 4123 C 6962.548 4123 6973.75 4134.202 6973.75 4148 L 6973.75 4982.571 C 6973.75 4996.369 6962.548 5007.571 6948.75 5007.571 L 6531.75 5007.571 C 6517.952 5007.571 6506.75 4996.369 6506.75 4982.571 L 6506.75 4148 C 6506.75 4134.202 6517.952 4123 6531.75 4123 Z" style="fill:none;stroke:#000000;stroke-width:5;stroke-linecap:square;stroke-miterlimit:2;"/><path d="M 7494.5 3551.859 L 7911.5 3551.859 C 7925.298 3551.859 7936.5 3563.061 7936.5 3576.859 L 7936.5 4021 C 7936.5 4034.798 7925.298 4046 7911.5 4046 L 7494.5 4046 C 7480.702 4046 7469.5 4034.798 7469.5 4021 L 7469.5 3576.859 C 7469.5 3563.061 7480.702 3551.859 7494.5 3551.859 Z" style="stroke:none;fill:#F1F2EC;stroke-linecap:square;stroke-miterlimit:2;"/><path d="M 7494.5 3551.859 L 7911.5 3551.859 C 7925.298 3551.859 7936.5 3563.061 7936.5 3576.859 L 7936.5 4021 C 7936.5 4034.798 7925.298 4046 7911.5 4046 L 7494.5 4046 C 7480.702 4046 7469.5 4034.798 7469.5 4021 L 7469.5 3576.859 C 7469.5 3563.061 7480.702 3551.859 7494.5 3551.859 Z" style="fill:none;stroke:#000000;stroke-width:5;stroke-linecap:square;stroke-miterlimit:2;"/><path d="M 7502.25 4100.715 L 7919.25 4100.715 C 7933.048 4100.715 7944.25 4111.917 7944.25 4125.715 L 7944.25 4960.285 C 7944.25 4974.083 7933.048 4985.285 7919.25 4985.285 L 7502.25 4985.285 C 7488.452 4985.285 7477.25 4974.083 7477.25 4960.285 L 7477.25 4125.715 C 7477.25 4111.917 7488.452 4100.715 7502.25 4100.715 Z" style="stroke:none;fill:#F1F2EC;stroke-linecap:square;stroke-miterlimit:2;"/><path d="M 7502.25 4100.715 L 7919.25 4100.715 C 7933.048 4100.715 7944.25 4111.917 7944.25 4125.715 L 7944.25 4960.285 C 7944.25 4974.083 7933.048 4985.285 7919.25 4985.285 L 7502.25 4985.285 C 7488.452 4985.285 7477.25 4974.083 7477.25 4960.285 L 7477.25 4125.715 C 7477.25 4111.917 7488.452 4100.715 7502.25 4100.715 Z" style="fill:none;stroke:#000000;stroke-width:5;stroke-linecap:square;stroke-miterlimit:2;"/><path d="M 8457.25 3551.859 L 8874.25 3551.859 C 8888.048 3551.859 8899.25 3563.061 8899.25 3576.859 L 8899.25 4021 C 8899.25 4034.798 8888.048 4046 8874.25 4046 L 8457.25 4046 C 8443.452 4046 8432.25 4034.798 8432.25 4021 L 8432.25 3576.859 C 8432.25 3563.061 8443.452 3551.859 8457.25 3551.859 Z" style="stroke:none;fill:#F1F2EC;stroke-linecap:square;stroke-miterlimit:2;"/><path d="M 8457.25 3551.859 L 8874.25 3551.859 C 8888.048 3551.859 8899.25 3563.061 8899.25 3576.859 L 8899.25 4021 C 8899.25 4034.798 8888.048 4046 8874.25 4046 L 8457.25 4046 C 8443.452 4046 8432.25 4034.798 8432.25 4021 L 8432.25 3576.859 C 8432.25 3563.061 8443.452 3551.859 8457.25 3551.859 Z" style="fill:none;stroke:#000000;stroke-width:5;stroke-linecap:square;stroke-miterlimit:2;"/><path d="M 8472.75 4123 L 8889.75 4123 C 8903.548 4123 8914.75 4134.202 8914.75 4148 L 8914.75 4982.571 C 8914.75 4996.369 8903.548 5007.571 8889.75 5007.571 L 8472.75 5007.571 C 8458.952 5007.571 8447.75 4996.369 8447.75 4982.571 L 8447.75 4148 C 8447.75 4134.202 8458.952 4123 8472.75 4123 Z" style="stroke:none;fill:#F1F2EC;stroke-linecap:square;stroke-miterlimit:2;"/><path d="M 8472.75 4123 L 8889.75 4123 C 8903.548 4123 8914.75 4134.202 8914.75 4148 L 8914.75 4982.571 C 8914.75 4996.369 8903.548 5007.571 8889.75 5007.571 L 8472.75 5007.571 C 8458.952 5007.571 8447.75 4996.369 8447.75 4982.571 L 8447.75 4148 C 8447.75 4134.202 8458.952 4123 8472.75 4123 Z" style="fill:none;stroke:#000000;stroke-width:5;stroke-linecap:square;stroke-miterlimit:2;"/></g></svg>